<?xml version="1.0"?><svg width="998" height="946" xmlns="http://www.w3.org/2000/svg">

 <g>
  <title>Layer 1</title>
  <path id="svg_1" fill="#bfddbf" d="m67,810l11,9l10,9l9,8l9,7l9,8l8,6l9,6l8,6l9,6l9,5l10,5l10,5l12,4l12,4l14,4l15,5l14,3l15,3l14,3l15,2l14,2l14,2l14,2l14,1l14,0l13,0l13,0l13,0l13,-1l12,-2l12,-2l11,-2l20,-3l19,-2l19,-3l18,-2l18,-3l18,-3l17,-3l17,-3l17,-3l16,-3l16,-3l16,-4l15,-3l15,-3l15,-3l14,-4l27,-7l25,-7l23,-7l21,-8l20,-7l18,-8l16,-8l15,-8l14,-8l13,-8l11,-8l11,-8l9,-9l10,-8l8,-9l8,-8l9,-10l7,-9l5,-10l5,-9l3,-8l1,-9l1,-9l0,-9l-7,-7l-4,-7l-4,-7l-4,-6l-4,-7l-4,-7l-4,-5l-7,-6l-18,-13l-17,-12l-17,-11l-17,-10l-17,-10l-17,-8l-16,-7l-16,-7l-15,-5l-15,-5l-16,-5l-15,-4l-14,-3l-15,-2l-14,-2l-14,-1l-13,-1l-12,-1l-12,0l-13,0l-11,1l-13,1l-11,0l-12,2l-11,1l-11,1l-12,2l-11,2l-10,1l-11,2l-11,2l-11,2l-10,2l-10,1l-11,1l-10,2l-10,1l-10,1l-10,0l-9,1l-10,0l-10,0l-10,-1l-9,-1l-10,-1l-9,-2l-10,-2l-9,-3l23,-19l16,-15l9,-13l5,-11l-2,-7l-6,-4l-11,-3l-15,0l-18,1l-21,4l-25,5l-26,7l-28,8l-30,10l-31,10l-30,12l-8,3l-7,3l-7,3l-8,3l-7,4l-7,3l-7,3l-7,3l-8,3l-7,3l-7,4l-7,3l-6,4l-7,3l-7,3l-6,4l-15,8l-11,7l-6,6l-4,5l-3,5l-4,5l-4,8l-8,8l0,10l4,15l5,16l8,17l7,17l7,16l6,13l2,8l4,13l0,12l0,9l-1,10l0,8l2,8l6,10l12,11z"/>
  <path id="svg_2" fill="#000" d="m225,288l1,10l36,358l4,59l1,0l5,2l8,1l11,2l12,3l14,2l15,3l16,3l17,3l16,4l16,3l14,3l14,2l12,2l10,1l8,1l6,0l8,0l9,-1l11,-2l12,-2l13,-2l12,-2l13,-3l13,-2l11,-3l11,-2l9,-2l9,-2l6,-2l3,0l2,-1l9,-46l18,-104l35,-213l3,-65l-7,-5l-1,0l-5,-1l-5,-1l-8,-2l-10,-1l-12,-2l-13,-3l-14,-2l-16,-2l-16,-2l-17,-2l-18,-2l-17,-1l-19,-2l-18,-1l-18,0l-18,0l-18,0l-18,1l-17,1l-17,2l-16,2l-15,2l-14,3l-13,2l-12,3l-10,2l-9,2l-7,1l-5,2l-3,0l-1,1l-36,-3z"/>
  <path id="svg_3" fill="#910000" d="m271,302l1,0l4,0l5,-1l7,-1l8,-1l10,-2l11,-1l11,-1l13,-1l12,-1l13,-2l12,-1l12,-1l12,0l10,-1l10,0l9,0l9,0l8,0l8,-1l7,0l7,-1l8,0l7,-1l7,0l7,-1l6,0l7,0l7,0l7,0l8,1l7,1l8,1l8,1l9,1l8,2l9,1l9,2l8,1l9,2l7,1l8,1l6,2l5,1l5,1l3,1l3,0l0,0l1,3l2,7l0,8l-3,6l-6,6l-6,3l-5,3l-5,2l-6,0l-5,0l-5,0l-5,0l-6,1l-7,1l-9,1l-7,2l-8,2l-6,2l-4,1l-1,0l-3,1l-8,2l-10,2l-13,4l-14,3l-13,2l-12,1l-8,0l-8,-1l-10,0l-11,-1l-11,0l-10,0l-8,1l-6,0l-2,0l-3,-1l-6,-2l-9,-3l-11,-4l-12,-4l-11,-4l-10,-3l-8,-3l-11,-4l-13,-5l-12,-5l-12,-5l-9,-5l-7,-6l-4,-5l1,-5z"/>
  <path id="svg_4" fill="#ff3f3f" d="m241,307l2,1l5,2l6,4l10,5l11,6l12,6l13,7l14,8l15,7l14,8l13,7l13,6l12,6l10,4l8,3l5,2l6,1l9,0l10,0l11,-1l10,0l10,-1l6,0l2,0l192,-51l-63,373l-1,0l-4,1l-6,1l-9,1l-10,2l-11,2l-13,2l-12,2l-14,2l-13,2l-13,2l-12,2l-11,1l-10,1l-8,1l-6,0l-6,0l-9,0l-10,-1l-12,-1l-13,-1l-13,-2l-15,-1l-14,-2l-14,-2l-13,-3l-13,-2l-10,-3l-10,-3l-7,-3l-5,-3l-1,-4l-38,-394z"/>
  <path id="svg_5" fill="#ff7f7f" d="m282,366l22,303l-1,25l8,8l6,-17l51,-270l-86,-49z"/>
  <path id="svg_6" fill="#ba0000" d="m544,407l-27,313l59,-8l5,-57l33,-273l-70,25z"/>
  <path id="svg_7" fill="#000" d="m234,317l0,1l-1,5l-2,7l-2,10l-1,11l-1,13l-1,14l1,15l2,15l3,16l5,16l8,15l10,14l13,13l16,12l19,10l13,4l14,3l15,0l16,-2l16,-3l15,-4l17,-6l16,-6l16,-7l15,-8l14,-8l14,-8l14,-9l12,-7l10,-8l10,-7l8,-6l10,-8l10,-8l11,-8l11,-9l11,-9l11,-9l11,-8l10,-8l9,-7l9,-7l7,-6l6,-4l4,-4l3,-2l1,-1l0,22l-2,2l-5,5l-9,8l-11,11l-14,13l-16,14l-18,16l-19,15l-21,16l-22,15l-21,15l-22,12l-22,11l-21,8l-20,6l-19,2l-11,0l-11,1l-11,1l-11,2l-11,1l-10,2l-11,1l-10,1l-10,0l-10,0l-9,-1l-10,-3l-9,-3l-9,-5l-8,-7l-8,-8l-12,-22l-8,-29l-3,-30l-1,-31l1,-29l2,-24l2,-16l1,-6l11,7z"/>
  <path id="svg_8" fill="#000" d="m136,630l133,38l191,-665l2,0l4,0l7,0l7,1l9,2l8,3l8,6l7,7l-1,10l-6,23l-9,34l-12,44l-16,50l-17,56l-19,60l-20,62l-20,61l-19,59l-18,55l-16,50l-14,42l-11,32l-6,21l-3,7l123,33l-20,72l-31,-13l-21,-7l-19,-8l-19,-1l-25,-14l-33,-7l-16,-6l-1,0l-2,-3l-2,-2l-3,-3l-4,-2l-3,-2l-4,0l-3,0l-3,1l-3,1l-2,-1l-3,-1l-2,0l-1,-1l-2,-1l0,0l-16,-6l-18,-9l0,0l-1,1l-3,0l-2,0l-3,0l-3,-1l-4,-1l-4,-1l-4,-2l-5,-1l-5,-2l-5,-1l-5,-1l-4,-1l-2,-1l-1,0l-19,-12l34,-55z"/>
  <path id="svg_9" fill="#3fff3f" d="m303,611l14,2l-19,67l-2,1l-3,0l-3,-1l-3,0l-3,-1l-3,-1l-1,-1l-1,0l5,-14l19,-52z"/>
  <path id="svg_10" fill="#3fff3f" d="m416,733l-275,-90l-9,6l281,93l3,-9z"/>
  <path id="svg_11" fill="#3fff3f" d="m133,654l278,93l-4,14l-279,-95l5,-12z"/>
  <path id="svg_12" fill="#ffbfbf" d="m467,22l1,0l2,0l4,1l4,0l5,1l4,1l5,1l3,2l-1,8l-5,19l-7,29l-10,37l-13,44l-15,48l-16,52l-16,53l-16,53l-16,52l-15,47l-14,44l-11,36l-9,28l-5,18l-2,6l-18,-6l1,-6l5,-18l8,-29l10,-36l12,-43l13,-47l14,-52l15,-53l15,-53l14,-52l14,-48l13,-44l10,-37l9,-29l5,-19l3,-8z"/>
  <path id="svg_13" fill="#d19191" d="m488,23l-170,575l178,-563l-8,-12z"/>
  <path id="svg_14" fill="#fff" d="m467,22l-161,574l170,-571l-9,-3z"/>
  <path id="svg_15" fill="#000" d="m247,821l338,-229l113,-30l22,14l115,-13l27,32l0,6l-1,14l-4,15l-7,8l-9,0l-4,-3l-1,-3l-1,-1l-54,12l3,22l-26,102l-399,179l-22,-3l-87,-92l-3,-30z"/>
  <path id="svg_16" fill="#ffffea" d="m595,597l99,-27l22,13l115,-15l24,26l-90,25l5,27l-76,39l-99,-88z"/>
  <path id="svg_17" fill="#adad6d" d="m774,624l83,-23l-3,29l-10,4l-9,-10l-56,14l-5,-14z"/>
  <path id="svg_18" fill="#adad6d" d="m774,653l-74,43l-21,98l69,-29l26,-112z"/>
  <path id="svg_19" fill="#302b84" d="m680,696l1,4l1,11l0,15l-2,17l-2,9l-3,11l-3,10l-3,10l-3,9l-3,7l-2,5l0,2l-306,131l-14,-8l339,-233z"/>
  <path id="svg_20" fill="#8c8cce" d="m679,687l-341,234l-86,-94l333,-222l1,0l2,2l4,3l5,4l6,5l7,6l7,6l8,7l8,7l8,7l8,6l7,7l7,7l6,5l5,6l5,4z"/>
  <path id="svg_21" fill="#000" d="m729,588l12,17l56,-8l-16,-20l-20,-3l-32,14z"/>
  <path id="svg_22" fill="#a00" d="m741,605l27,-16l22,4l-49,12z"/>
  <path id="svg_23" fill="#ff7f7f" d="m735,589l26,-15l2,13l-21,11l-7,-9z"/>
  <path id="svg_24" fill="#f00" d="m768,574l13,3l9,16l-21,-8l-1,-11z"/>
  <path id="svg_25" fill="#c1c6ef" d="m585,605l94,82l-21,13l-92,-80l19,-15z"/>
  <path id="svg_26" fill="#8c8cce" d="m680,696l2,4l2,10l2,12l-2,11l-2,8l-4,9l-4,12l-4,13l-3,11l-3,11l-2,6l-1,3l-9,3l14,-65l-2,-36l16,-12z"/>
  <path id="svg_27" fill="#140f68" d="m251,838l3,13l93,92l-12,-14l-84,-91z"/>
  <path id="svg_28" fill="#000" d="m612,632l-19,10l21,18l17,-11l-19,-17z"/>
  <path id="svg_29" fill="#ffffea" d="m612,636l-11,9l12,10l13,-6l-14,-13z"/>
 </g>
</svg>